<?xml version="1.0" encoding="utf-8" standalone="yes"?>
<svg xmlns="http://www.w3.org/2000/svg" width="1000" height="1000" viewBox="0 0 50 50">
  <defs>
    <radialGradient id="b" cx="24.933687" cy="25.066313" r="23" fx="24.933687" fy="25.066313" gradientUnits="userSpaceOnUse">
      <stop stop-color="#0000a0"/>
      <stop offset=".78571427" stop-color="#0000a0"/>
      <stop offset="1" stop-color="#0000a0" stop-opacity="0"/>
    </radialGradient>
    <linearGradient id="a" x1="9.94695" x2="38.992043" y1="6.3660479" y2="44.297081" gradientUnits="userSpaceOnUse">
      <stop stop-color="#00f"/>
      <stop offset="1" stop-color="#000030"/>
    </linearGradient>
  </defs>
  <path fill="url(#a)" stroke="#000" stroke-width=".99999958" d="M49.634373 24.99999c0 13.530971-10.96902 24.499991-24.499991 24.499991-13.530971 0-24.49999067-10.96902-24.49999067-24.499991C.63439133 11.469019 11.603411.49999979 25.134382.49999979S49.634373 11.469019 49.634373 24.99999z" transform="translate(-.134407 -.00001538)"/>
  <path fill="url(#b)" stroke="#000" stroke-width=".99999958" d="M49.499981 24.99999c0 13.530971-10.96902 24.499991-24.499991 24.499991-13.530971 0-24.49999021-10.96902-24.49999021-24.499991C.49999979 11.469019 11.469019.49999979 24.99999.49999979S49.499981 11.469019 49.499981 24.99999z" transform="translate(-.00001503 -.00001538)"/>
  <path fill="#fff" d="M24.99999764 30.9624828h-1.97873119v-1.05402604c-.00000856-1.46046908.11679102-2.60060745.35040032-3.42041822.2335906-.81978347.62521449-1.67058135 1.17487164-2.55239679.13740202-.22043376.34351908-.53732943.6183535-.95069015 1.69015415-2.57648876 2.53523656-4.8223201 2.5352501-6.73750103-.00001354-1.63957055-.37446065-2.91060087-1.12334234-3.81309475-.74890644-.90243804-1.80354177-1.35367107-3.16390934-1.35370034-.82447989.00002927-1.53902119.15158846-2.14362545.45467797-.60461905.3031472-.90692469.64071075-.90691846 1.01269185-.00000623.16536504.38131137.59937544 1.14395358 1.30203235.7626282.70270994 1.1439458 1.51561823 1.14395435 2.43872727-.00000856 1.03338205-.31262047 1.84629037-.93783652 2.43872731-.62523084.59248018-1.48061945.88870946-2.5661674.8886887-1.15426374.00002076-2.08522838-.35820997-2.792897-1.07469337-.70767252-.7164397-1.061508-1.65335092-1.06150645-2.8107365-.00000156-1.87379784.89661062-3.46516911 2.6898381-4.77411865 1.79321968-1.30889068 4.0227251-1.96335077 6.68852403-1.96338215 3.20168404.00003138 5.67509592.65104692 7.42024334 1.95304857 1.74511157 1.3020605 2.61767631 3.13799315 2.61769686 5.50780351-.00002055 2.68675466-2.03371473 5.47682117-6.10108876 8.37020804l-.28856496.20667177c-1.45657896 1.0333737-2.37380277 1.89450478-2.75167353 2.58339794-.3778941.68891735-.56683454 1.58449477-.56682442 2.68673304v.66134967zm-1.00997738 2.08738568c1.08554328.00000703 2.01994308.3926834 2.80320314 1.1780291.78323445.7853582 1.17485802 1.7153804 1.1748718 2.79006893-.00001378 1.10225232-.38820203 2.04260771-1.16456591 2.82107009-.77638934.77846393-1.7142243 1.16769512-2.81350903 1.1676959-1.09930418-7.8e-7-2.03370398-.39267636-2.80320251-1.1780291-.76951332-.78535195-1.15426609-1.72226295-1.15426064-2.81073689-.00000545-1.0884669.38818249-2.0219335 1.16456614-2.8004029.77636964-.77845692 1.70733428-1.1676881 2.79289701-1.16769513z"/>
</svg>