<?xml version="1.0" encoding="UTF-8"?>
<svg version="1.1" xmlns="http://www.w3.org/2000/svg" width="37" height="41">
<path d="M0 0 C12.21 0 24.42 0 37 0 C37 13.53 37 27.06 37 41 C24.79 41 12.58 41 0 41 C0 27.47 0 13.94 0 0 Z " fill="#FEFCFB" transform="translate(0,0)"/>
<path d="M0 0 C1.65 0 3.3 0 5 0 C5.19335938 0.68707031 5.38671875 1.37414063 5.5859375 2.08203125 C5.84632812 2.98308594 6.10671875 3.88414063 6.375 4.8125 C6.63023438 5.70582031 6.88546875 6.59914063 7.1484375 7.51953125 C7.95266661 10.20467896 7.95266661 10.20467896 10 13 C5.38 13 0.76 13 -4 13 C-3.01 12.01 -2.02 11.02 -1 10 C-0.18463838 8.0375909 -0.18463838 8.0375909 0.25 5.9375 C0.42015625 5.24527344 0.5903125 4.55304687 0.765625 3.83984375 C1.18533639 1.90679371 1.18533639 1.90679371 0 0 Z " fill="#EF2021" transform="translate(15,7)"/>
<path d="M0 0 C0.99 0 1.98 0 3 0 C2.67 1.98 2.34 3.96 2 6 C3.16015625 5.7834375 3.16015625 5.7834375 4.34375 5.5625 C10.32823915 4.49595738 15.92337435 3.76628363 22 4 C23.125 8.75 23.125 8.75 22 11 C21.01 11 20.02 11 19 11 C19.33 9.35 19.66 7.7 20 6 C18.3603125 6.2475 18.3603125 6.2475 16.6875 6.5 C11.50960823 7.13913154 6.20045839 7.51654385 1 7 C0.34 6.34 -0.32 5.68 -1 5 C-0.625 2.375 -0.625 2.375 0 0 Z " fill="#EF2F31" transform="translate(8,23)"/>
<path d="M0 0 C1.98 0 3.96 0 6 0 C7.125 4.75 7.125 4.75 6 7 C5.01 7 4.02 7 3 7 C3.33 5.35 3.66 3.7 4 2 C2.68 1.34 1.36 0.68 0 0 Z " fill="#EF191E" transform="translate(24,27)"/>
<path d="M0 0 C0.66 0 1.32 0 2 0 C2.33 1.98 2.66 3.96 3 6 C1.68 6 0.36 6 -1 6 C-0.67 4.02 -0.34 2.04 0 0 Z " fill="#FBE6E3" transform="translate(17,13)"/>
</svg>
