<?xml version="1.0" encoding="UTF-8"?>
<svg version="1.1" xmlns="http://www.w3.org/2000/svg" width="56" height="43">
<path d="M0 0 C18.48 0 36.96 0 56 0 C56 14.19 56 28.38 56 43 C37.52 43 19.04 43 0 43 C0 28.81 0 14.62 0 0 Z " fill="#FBFCFB" transform="translate(0,0)"/>
<path d="M0 0 C0.79921875 0.01804687 1.5984375 0.03609375 2.421875 0.0546875 C3.02515625 0.07789062 3.6284375 0.10109375 4.25 0.125 C-0.5 4.125 -0.5 4.125 -2.75 4.125 C-2.07786632 7.17324669 -2.07786632 7.17324669 0.03491211 8.2980957 C2.41918058 9.18815603 4.15484799 9.36925586 6.69140625 9.35546875 C7.93760742 9.35256836 7.93760742 9.35256836 9.20898438 9.34960938 C10.06814453 9.33736328 10.92730469 9.32511719 11.8125 9.3125 C12.67552734 9.31185547 13.53855469 9.31121094 14.42773438 9.31054688 C19.41677211 9.27732851 19.41677211 9.27732851 24.25 8.125 C24.69290923 4.12153977 24.69290923 4.12153977 22.25 1.875 C21.59 1.2975 20.93 0.72 20.25 0.125 C24.79805635 -0.05335515 28.1294254 0.12714565 32.25 2.125 C32.56364861 5.57513471 32.69797604 7.4799145 30.6875 10.375 C23.35551089 15.63899218 14.10778786 14.69088953 5.625 13.375 C-0.15532565 12.22713391 -5.49924637 10.37575363 -9.75 6.125 C-9.625 4.125 -9.625 4.125 -8.75 2.125 C-5.76447379 0.22753223 -3.50017766 -0.1029464 0 0 Z " fill="#141113" transform="translate(16.75,19.875)"/>
<path d="M0 0 C1.45823212 -0.0270043 2.91660675 -0.04639787 4.375 -0.0625 C5.18710938 -0.07410156 5.99921875 -0.08570313 6.8359375 -0.09765625 C9 0 9 0 11 1 C10 4 10 4 8 5 C10.73912528 6.36956264 12.86479488 6.0605869 15.92578125 5.9921875 C17.70952148 5.96705078 17.70952148 5.96705078 19.52929688 5.94140625 C22.03986704 5.89733842 24.55031107 5.84532866 27.06054688 5.78515625 C28.25357422 5.77097656 29.44660156 5.75679687 30.67578125 5.7421875 C31.76802002 5.7201123 32.86025879 5.69803711 33.9855957 5.67529297 C37.38591025 6.04156966 39.26294017 6.98903411 42 9 C42 9.33 42 9.66 42 10 C37.58925296 10.09961729 33.17911905 10.17181669 28.76757812 10.21972656 C27.2700661 10.23971919 25.77263092 10.26692299 24.27539062 10.30175781 C8.82295251 10.65201308 8.82295251 10.65201308 2 6 C1.34 5.34 0.68 4.68 0 4 C0 2.68 0 1.36 0 0 Z " fill="#080709" transform="translate(7,7)"/>
</svg>
